<mxfile host="app.diagrams.net" agent="Mozilla/5.0 (Windows NT 10.0; Win64; x64) AppleWebKit/537.36 (KHTML, like Gecko) Chrome/129.0.0.0 Safari/537.36" version="24.7.17">
  <diagram name="PÃ¡gina-1" id="6fZkrsb3wSJxBQ-ndnyD">
    <mxGraphModel grid="1" page="1" gridSize="10" guides="1" tooltips="1" connect="1" arrows="1" fold="1" pageScale="1" pageWidth="827" pageHeight="1169" math="0" shadow="0">
      <root>
        <mxCell id="0" />
        <mxCell id="1" parent="0" />
        <mxCell id="xFFh-LWiM3oebKOAVU3C-1" value="Sistema Estacionamento" style="swimlane;whiteSpace=wrap;html=1;" vertex="1" parent="1">
          <mxGeometry x="100" width="570" height="760" as="geometry" />
        </mxCell>
        <mxCell id="xFFh-LWiM3oebKOAVU3C-4" value="Detectar a Placa" style="ellipse;whiteSpace=wrap;html=1;" vertex="1" parent="xFFh-LWiM3oebKOAVU3C-1">
          <mxGeometry x="365" y="40" width="140" height="70" as="geometry" />
        </mxCell>
        <mxCell id="xFFh-LWiM3oebKOAVU3C-5" value="Gerar QR Code" style="ellipse;whiteSpace=wrap;html=1;" vertex="1" parent="xFFh-LWiM3oebKOAVU3C-1">
          <mxGeometry x="365" y="170" width="140" height="70" as="geometry" />
        </mxCell>
        <mxCell id="xFFh-LWiM3oebKOAVU3C-6" value="Abrir Cancela Entrada" style="ellipse;whiteSpace=wrap;html=1;" vertex="1" parent="xFFh-LWiM3oebKOAVU3C-1">
          <mxGeometry x="365" y="300" width="140" height="70" as="geometry" />
        </mxCell>
        <mxCell id="xFFh-LWiM3oebKOAVU3C-7" value="Efetuar Pagamento" style="ellipse;whiteSpace=wrap;html=1;" vertex="1" parent="xFFh-LWiM3oebKOAVU3C-1">
          <mxGeometry x="50" y="510" width="140" height="70" as="geometry" />
        </mxCell>
        <mxCell id="H1QOlZagYGRScTD-n8EF-5" value="Extends" style="rounded=0;orthogonalLoop=1;jettySize=auto;html=1;exitX=0.021;exitY=0.643;exitDx=0;exitDy=0;entryX=0.709;entryY=0.02;entryDx=0;entryDy=0;dashed=1;endArrow=none;endFill=0;startArrow=open;startFill=0;entryPerimeter=0;exitPerimeter=0;" edge="1" parent="xFFh-LWiM3oebKOAVU3C-1" source="xFFh-LWiM3oebKOAVU3C-9" target="H1QOlZagYGRScTD-n8EF-4">
          <mxGeometry relative="1" as="geometry" />
        </mxCell>
        <mxCell id="xFFh-LWiM3oebKOAVU3C-9" value="Verificar Pagamento" style="ellipse;whiteSpace=wrap;html=1;" vertex="1" parent="xFFh-LWiM3oebKOAVU3C-1">
          <mxGeometry x="400" y="620" width="140" height="70" as="geometry" />
        </mxCell>
        <mxCell id="xFFh-LWiM3oebKOAVU3C-10" value="Abrir Cancela Saida" style="ellipse;whiteSpace=wrap;html=1;" vertex="1" parent="xFFh-LWiM3oebKOAVU3C-1">
          <mxGeometry x="375" y="400" width="140" height="70" as="geometry" />
        </mxCell>
        <mxCell id="xFFh-LWiM3oebKOAVU3C-11" value="Apresentar o Cupom de Pagamento" style="ellipse;whiteSpace=wrap;html=1;" vertex="1" parent="xFFh-LWiM3oebKOAVU3C-1">
          <mxGeometry x="95" y="380" width="140" height="60" as="geometry" />
        </mxCell>
        <mxCell id="xFFh-LWiM3oebKOAVU3C-13" value="Aproximar Cancela Entrada" style="ellipse;whiteSpace=wrap;html=1;" vertex="1" parent="xFFh-LWiM3oebKOAVU3C-1">
          <mxGeometry x="95" y="100" width="140" height="70" as="geometry" />
        </mxCell>
        <mxCell id="xFFh-LWiM3oebKOAVU3C-14" value="Aproximar Cancela&amp;nbsp;&lt;div&gt;Saida&lt;/div&gt;" style="ellipse;whiteSpace=wrap;html=1;" vertex="1" parent="xFFh-LWiM3oebKOAVU3C-1">
          <mxGeometry x="95" y="220" width="140" height="70" as="geometry" />
        </mxCell>
        <mxCell id="xFFh-LWiM3oebKOAVU3C-16" style="edgeStyle=orthogonalEdgeStyle;rounded=0;orthogonalLoop=1;jettySize=auto;html=1;exitX=0.5;exitY=1;exitDx=0;exitDy=0;" edge="1" parent="xFFh-LWiM3oebKOAVU3C-1" source="xFFh-LWiM3oebKOAVU3C-11" target="xFFh-LWiM3oebKOAVU3C-11">
          <mxGeometry relative="1" as="geometry" />
        </mxCell>
        <mxCell id="xFFh-LWiM3oebKOAVU3C-26" value="Include" style="endArrow=open;endSize=12;dashed=1;html=1;rounded=0;exitX=0;exitY=0.5;exitDx=0;exitDy=0;entryX=0.929;entryY=0.243;entryDx=0;entryDy=0;entryPerimeter=0;" edge="1" parent="xFFh-LWiM3oebKOAVU3C-1" source="xFFh-LWiM3oebKOAVU3C-4" target="xFFh-LWiM3oebKOAVU3C-13">
          <mxGeometry width="160" relative="1" as="geometry">
            <mxPoint x="445" y="320" as="sourcePoint" />
            <mxPoint x="605" y="320" as="targetPoint" />
          </mxGeometry>
        </mxCell>
        <mxCell id="xFFh-LWiM3oebKOAVU3C-27" value="Include" style="endArrow=open;endSize=12;dashed=1;html=1;rounded=0;exitX=0.5;exitY=0;exitDx=0;exitDy=0;entryX=0.5;entryY=1;entryDx=0;entryDy=0;" edge="1" parent="xFFh-LWiM3oebKOAVU3C-1" source="xFFh-LWiM3oebKOAVU3C-5" target="xFFh-LWiM3oebKOAVU3C-4">
          <mxGeometry width="160" relative="1" as="geometry">
            <mxPoint x="450" y="320" as="sourcePoint" />
            <mxPoint x="610" y="320" as="targetPoint" />
          </mxGeometry>
        </mxCell>
        <mxCell id="xFFh-LWiM3oebKOAVU3C-28" value="Include" style="endArrow=open;endSize=12;dashed=1;html=1;rounded=0;exitX=0;exitY=1;exitDx=0;exitDy=0;entryX=1;entryY=0;entryDx=0;entryDy=0;" edge="1" parent="xFFh-LWiM3oebKOAVU3C-1" source="xFFh-LWiM3oebKOAVU3C-4" target="xFFh-LWiM3oebKOAVU3C-14">
          <mxGeometry width="160" relative="1" as="geometry">
            <mxPoint x="450" y="320" as="sourcePoint" />
            <mxPoint x="610" y="320" as="targetPoint" />
          </mxGeometry>
        </mxCell>
        <mxCell id="xFFh-LWiM3oebKOAVU3C-31" value="Include" style="endArrow=open;endSize=12;dashed=1;html=1;rounded=0;exitX=0.5;exitY=0;exitDx=0;exitDy=0;entryX=0.5;entryY=1;entryDx=0;entryDy=0;" edge="1" parent="xFFh-LWiM3oebKOAVU3C-1" source="xFFh-LWiM3oebKOAVU3C-6" target="xFFh-LWiM3oebKOAVU3C-5">
          <mxGeometry width="160" relative="1" as="geometry">
            <mxPoint x="460" y="320" as="sourcePoint" />
            <mxPoint x="610" y="320" as="targetPoint" />
          </mxGeometry>
        </mxCell>
        <mxCell id="xFFh-LWiM3oebKOAVU3C-32" value="Include" style="endArrow=open;endSize=12;dashed=1;html=1;rounded=0;exitX=0;exitY=0;exitDx=0;exitDy=0;entryX=1;entryY=1;entryDx=0;entryDy=0;" edge="1" parent="xFFh-LWiM3oebKOAVU3C-1" source="xFFh-LWiM3oebKOAVU3C-9" target="xFFh-LWiM3oebKOAVU3C-11">
          <mxGeometry width="160" relative="1" as="geometry">
            <mxPoint x="444.9948993037415" y="570.5077057814244" as="sourcePoint" />
            <mxPoint x="605" y="320" as="targetPoint" />
          </mxGeometry>
        </mxCell>
        <mxCell id="xFFh-LWiM3oebKOAVU3C-35" value="Include" style="endArrow=open;endSize=12;dashed=1;html=1;rounded=0;exitX=0.5;exitY=1;exitDx=0;exitDy=0;entryX=0.5;entryY=0;entryDx=0;entryDy=0;" edge="1" parent="xFFh-LWiM3oebKOAVU3C-1" source="xFFh-LWiM3oebKOAVU3C-10" target="H1QOlZagYGRScTD-n8EF-1">
          <mxGeometry width="160" relative="1" as="geometry">
            <mxPoint x="473.0200000000002" y="497.4100000000001" as="sourcePoint" />
            <mxPoint x="445" y="520" as="targetPoint" />
          </mxGeometry>
        </mxCell>
        <mxCell id="xFFh-LWiM3oebKOAVU3C-36" value="Include" style="endArrow=none;endSize=12;dashed=1;html=1;rounded=0;exitX=1;exitY=1;exitDx=0;exitDy=0;startArrow=open;startFill=0;endFill=0;entryX=0.214;entryY=0.114;entryDx=0;entryDy=0;entryPerimeter=0;" edge="1" parent="xFFh-LWiM3oebKOAVU3C-1" source="xFFh-LWiM3oebKOAVU3C-14" target="xFFh-LWiM3oebKOAVU3C-9">
          <mxGeometry width="160" relative="1" as="geometry">
            <mxPoint x="445" y="320" as="sourcePoint" />
            <mxPoint x="454.96000000000004" y="570.01" as="targetPoint" />
          </mxGeometry>
        </mxCell>
        <mxCell id="xFFh-LWiM3oebKOAVU3C-37" value="PIX" style="ellipse;whiteSpace=wrap;html=1;" vertex="1" parent="xFFh-LWiM3oebKOAVU3C-1">
          <mxGeometry x="10" y="640" width="100" height="40" as="geometry" />
        </mxCell>
        <mxCell id="xFFh-LWiM3oebKOAVU3C-39" value="Credito/Debito" style="ellipse;whiteSpace=wrap;html=1;" vertex="1" parent="xFFh-LWiM3oebKOAVU3C-1">
          <mxGeometry x="135" y="640" width="100" height="40" as="geometry" />
        </mxCell>
        <mxCell id="xFFh-LWiM3oebKOAVU3C-40" value="Extends" style="endArrow=open;endSize=12;dashed=1;html=1;rounded=0;exitX=0.58;exitY=0.075;exitDx=0;exitDy=0;exitPerimeter=0;" edge="1" parent="xFFh-LWiM3oebKOAVU3C-1" target="xFFh-LWiM3oebKOAVU3C-7" source="xFFh-LWiM3oebKOAVU3C-37">
          <mxGeometry width="160" relative="1" as="geometry">
            <mxPoint x="115" y="640.0000000000002" as="sourcePoint" />
            <mxPoint x="650" y="590" as="targetPoint" />
          </mxGeometry>
        </mxCell>
        <mxCell id="xFFh-LWiM3oebKOAVU3C-41" value="Extends" style="endArrow=open;endSize=12;dashed=1;html=1;rounded=0;exitX=0.5;exitY=0;exitDx=0;exitDy=0;" edge="1" parent="xFFh-LWiM3oebKOAVU3C-1" source="xFFh-LWiM3oebKOAVU3C-39" target="xFFh-LWiM3oebKOAVU3C-7">
          <mxGeometry width="160" relative="1" as="geometry">
            <mxPoint x="490" y="590" as="sourcePoint" />
            <mxPoint x="650" y="590" as="targetPoint" />
          </mxGeometry>
        </mxCell>
        <mxCell id="H1QOlZagYGRScTD-n8EF-3" value="Extends" style="rounded=0;orthogonalLoop=1;jettySize=auto;html=1;dashed=1;endArrow=open;endFill=0;" edge="1" parent="xFFh-LWiM3oebKOAVU3C-1" source="H1QOlZagYGRScTD-n8EF-1" target="xFFh-LWiM3oebKOAVU3C-9">
          <mxGeometry relative="1" as="geometry" />
        </mxCell>
        <mxCell id="H1QOlZagYGRScTD-n8EF-1" value="Aprovar Pagamento" style="ellipse;whiteSpace=wrap;html=1;" vertex="1" parent="xFFh-LWiM3oebKOAVU3C-1">
          <mxGeometry x="400" y="522.25" width="120" height="45.5" as="geometry" />
        </mxCell>
        <mxCell id="H1QOlZagYGRScTD-n8EF-4" value="Desaprovar Pagamento" style="ellipse;whiteSpace=wrap;html=1;" vertex="1" parent="xFFh-LWiM3oebKOAVU3C-1">
          <mxGeometry x="290" y="700" width="110" height="50" as="geometry" />
        </mxCell>
        <mxCell id="H1QOlZagYGRScTD-n8EF-6" value="Include" style="rounded=0;orthogonalLoop=1;jettySize=auto;html=1;exitX=0.057;exitY=0.271;exitDx=0;exitDy=0;entryX=0.993;entryY=0.614;entryDx=0;entryDy=0;entryPerimeter=0;dashed=1;endArrow=open;endFill=0;exitPerimeter=0;strokeWidth=1;curved=0;jumpStyle=none;jumpSize=3;" edge="1" parent="xFFh-LWiM3oebKOAVU3C-1" source="xFFh-LWiM3oebKOAVU3C-9" target="xFFh-LWiM3oebKOAVU3C-7">
          <mxGeometry relative="1" as="geometry" />
        </mxCell>
        <mxCell id="xFFh-LWiM3oebKOAVU3C-12" style="rounded=0;orthogonalLoop=1;jettySize=auto;html=1;entryX=0;entryY=0;entryDx=0;entryDy=0;endArrow=none;endFill=0;" edge="1" parent="1" source="xFFh-LWiM3oebKOAVU3C-2" target="xFFh-LWiM3oebKOAVU3C-7">
          <mxGeometry relative="1" as="geometry" />
        </mxCell>
        <mxCell id="xFFh-LWiM3oebKOAVU3C-2" value="Motorista" style="shape=umlActor;verticalLabelPosition=bottom;verticalAlign=top;html=1;outlineConnect=0;" vertex="1" parent="1">
          <mxGeometry x="10" y="190" width="40" height="80" as="geometry" />
        </mxCell>
        <mxCell id="xFFh-LWiM3oebKOAVU3C-17" style="rounded=0;orthogonalLoop=1;jettySize=auto;html=1;exitX=0;exitY=0.3333333333333333;exitDx=0;exitDy=0;exitPerimeter=0;entryX=1;entryY=1;entryDx=0;entryDy=0;endArrow=none;endFill=0;" edge="1" parent="1" source="xFFh-LWiM3oebKOAVU3C-3" target="xFFh-LWiM3oebKOAVU3C-4">
          <mxGeometry relative="1" as="geometry" />
        </mxCell>
        <mxCell id="xFFh-LWiM3oebKOAVU3C-3" value="Sensor" style="shape=umlActor;verticalLabelPosition=bottom;verticalAlign=top;html=1;outlineConnect=0;fontStyle=0;labelBorderColor=none;" vertex="1" parent="1">
          <mxGeometry x="710" y="200" width="40" height="80" as="geometry" />
        </mxCell>
        <mxCell id="xFFh-LWiM3oebKOAVU3C-18" style="rounded=0;orthogonalLoop=1;jettySize=auto;html=1;exitX=1;exitY=0.5;exitDx=0;exitDy=0;endArrow=none;endFill=0;" edge="1" parent="1" source="xFFh-LWiM3oebKOAVU3C-5" target="xFFh-LWiM3oebKOAVU3C-3">
          <mxGeometry relative="1" as="geometry" />
        </mxCell>
        <mxCell id="xFFh-LWiM3oebKOAVU3C-19" style="rounded=0;orthogonalLoop=1;jettySize=auto;html=1;exitX=1;exitY=0;exitDx=0;exitDy=0;endArrow=none;endFill=0;" edge="1" parent="1" source="xFFh-LWiM3oebKOAVU3C-6" target="xFFh-LWiM3oebKOAVU3C-3">
          <mxGeometry relative="1" as="geometry" />
        </mxCell>
        <mxCell id="xFFh-LWiM3oebKOAVU3C-20" style="rounded=0;orthogonalLoop=1;jettySize=auto;html=1;exitX=1;exitY=0;exitDx=0;exitDy=0;endArrow=none;endFill=0;" edge="1" parent="1" source="xFFh-LWiM3oebKOAVU3C-10" target="xFFh-LWiM3oebKOAVU3C-3">
          <mxGeometry relative="1" as="geometry" />
        </mxCell>
        <mxCell id="xFFh-LWiM3oebKOAVU3C-21" style="rounded=0;orthogonalLoop=1;jettySize=auto;html=1;exitX=0;exitY=0.5;exitDx=0;exitDy=0;endArrow=none;endFill=0;" edge="1" parent="1" source="xFFh-LWiM3oebKOAVU3C-13" target="xFFh-LWiM3oebKOAVU3C-2">
          <mxGeometry relative="1" as="geometry" />
        </mxCell>
        <mxCell id="xFFh-LWiM3oebKOAVU3C-22" style="rounded=0;orthogonalLoop=1;jettySize=auto;html=1;exitX=0;exitY=0.5;exitDx=0;exitDy=0;endArrow=none;endFill=0;" edge="1" parent="1" source="xFFh-LWiM3oebKOAVU3C-14" target="xFFh-LWiM3oebKOAVU3C-2">
          <mxGeometry relative="1" as="geometry">
            <mxPoint x="60" y="230" as="targetPoint" />
          </mxGeometry>
        </mxCell>
        <mxCell id="xFFh-LWiM3oebKOAVU3C-23" style="rounded=0;orthogonalLoop=1;jettySize=auto;html=1;exitX=0;exitY=0;exitDx=0;exitDy=0;endArrow=none;endFill=0;" edge="1" parent="1" source="xFFh-LWiM3oebKOAVU3C-11" target="xFFh-LWiM3oebKOAVU3C-2">
          <mxGeometry relative="1" as="geometry">
            <mxPoint x="90" y="290" as="targetPoint" />
          </mxGeometry>
        </mxCell>
        <mxCell id="xFFh-LWiM3oebKOAVU3C-24" style="rounded=0;orthogonalLoop=1;jettySize=auto;html=1;exitX=1;exitY=0;exitDx=0;exitDy=0;endArrow=none;endFill=0;" edge="1" parent="1" source="xFFh-LWiM3oebKOAVU3C-9" target="xFFh-LWiM3oebKOAVU3C-3">
          <mxGeometry relative="1" as="geometry">
            <mxPoint x="750" y="240" as="targetPoint" />
          </mxGeometry>
        </mxCell>
        <mxCell id="H1QOlZagYGRScTD-n8EF-8" style="rounded=0;orthogonalLoop=1;jettySize=auto;html=1;exitX=1;exitY=0;exitDx=0;exitDy=0;endArrow=none;endFill=0;" edge="1" parent="1" source="H1QOlZagYGRScTD-n8EF-1" target="xFFh-LWiM3oebKOAVU3C-3">
          <mxGeometry relative="1" as="geometry" />
        </mxCell>
        <mxCell id="H1QOlZagYGRScTD-n8EF-9" style="rounded=0;orthogonalLoop=1;jettySize=auto;html=1;exitX=1;exitY=0.5;exitDx=0;exitDy=0;edgeStyle=orthogonalEdgeStyle;endArrow=none;endFill=0;" edge="1" parent="1" source="H1QOlZagYGRScTD-n8EF-4" target="xFFh-LWiM3oebKOAVU3C-3">
          <mxGeometry relative="1" as="geometry" />
        </mxCell>
      </root>
    </mxGraphModel>
  </diagram>
</mxfile>
